<?xml version="1.0" encoding="UTF-8" ?>
<!DOCTYPE svg PUBLIC "-//W3C//DTD SVG 1.1//EN" "http://www.w3.org/Graphics/SVG/1.1/DTD/svg11.dtd">
<svg width="379pt" height="379pt" viewBox="0 0 379 379" version="1.1" xmlns="http://www.w3.org/2000/svg">
<g id="#252525ff">
<path fill="#252525" opacity="1.00" d=" M 190.27 5.31 C 238.57 29.85 284.74 60.14 332.39 86.60 C 337.02 88.19 340.99 94.21 335.26 97.32 C 289.17 124.63 242.64 151.27 196.52 178.54 C 192.92 181.14 188.37 180.69 184.84 178.25 C 138.64 151.05 92.07 124.42 46.03 96.99 C 40.06 93.70 45.27 88.10 49.57 86.47 C 96.72 59.89 142.76 31.00 190.27 5.31 M 188.51 11.17 C 188.29 11.85 187.84 13.22 187.62 13.91 C 185.34 13.90 181.40 15.33 180.65 17.88 C 178.63 16.02 177.98 20.55 176.51 18.47 L 176.77 19.65 C 172.73 21.21 168.74 25.40 164.56 25.49 L 164.71 26.70 L 163.54 26.66 C 163.63 28.09 160.80 28.78 159.77 28.64 C 159.01 30.38 156.23 32.12 154.56 31.49 L 154.72 32.71 L 153.55 32.67 C 153.59 33.98 150.55 35.16 149.60 34.47 L 149.75 35.84 C 144.57 36.50 140.00 41.94 134.74 42.65 C 133.89 44.45 131.39 46.13 129.60 45.48 L 129.74 46.84 C 127.84 46.59 124.74 47.75 124.66 49.87 C 122.22 48.55 120.93 52.79 118.57 51.50 L 118.73 52.70 C 115.71 54.96 109.64 56.36 107.65 59.85 C 105.21 58.56 103.93 62.76 101.56 61.50 L 101.71 62.68 L 100.62 62.61 L 100.72 63.83 C 98.25 62.53 96.93 66.80 94.55 65.48 C 95.58 68.03 90.06 67.01 90.65 69.86 C 88.27 68.58 87.04 72.54 84.77 71.55 C 83.50 73.95 80.18 75.22 77.57 75.50 L 77.70 76.69 L 76.61 76.60 L 76.71 77.83 C 74.23 76.53 72.94 80.75 70.56 79.50 L 70.71 80.69 C 69.18 80.33 68.59 82.87 66.58 82.51 C 66.74 84.07 63.81 84.76 62.73 84.61 C 61.86 86.41 59.40 88.11 57.58 87.46 L 57.72 88.81 C 55.61 88.49 53.46 89.70 52.49 91.57 C 51.07 92.02 49.61 92.31 48.13 92.48 C 52.39 95.00 57.44 96.92 60.75 100.39 C 62.63 100.25 64.85 101.53 65.73 103.37 C 68.51 103.03 70.56 106.78 73.50 106.22 C 73.81 106.79 74.44 107.91 74.75 108.47 C 76.17 108.29 79.87 109.59 79.47 111.48 C 80.95 110.12 81.83 113.44 83.46 112.22 C 83.79 112.79 84.44 113.93 84.77 114.50 C 85.25 114.42 86.22 114.28 86.70 114.21 L 86.50 115.53 C 89.65 115.82 94.60 119.37 97.58 121.47 C 99.10 122.34 102.09 122.74 102.58 124.48 C 104.10 125.38 107.10 125.72 107.59 127.48 C 109.70 128.74 113.45 129.43 114.56 131.48 C 116.09 132.34 119.06 132.75 119.57 134.48 C 121.69 135.73 125.40 136.44 126.57 138.46 C 128.09 139.34 131.05 139.75 131.57 141.47 C 133.69 142.74 137.40 143.45 138.56 145.47 C 140.67 146.73 144.42 147.44 145.56 149.48 C 150.69 151.93 156.38 155.31 160.56 158.48 C 163.35 160.06 167.75 161.17 169.56 163.49 C 171.09 164.32 174.02 164.77 174.57 166.47 C 176.09 167.37 179.07 167.74 179.57 169.48 C 181.67 170.72 185.40 171.45 186.55 173.46 C 188.39 174.20 190.18 175.64 192.53 175.53 C 192.09 174.08 194.47 173.72 195.43 173.51 C 195.88 171.74 198.91 171.34 200.44 170.48 C 200.94 168.75 203.91 168.35 205.43 167.47 C 206.57 165.44 210.31 164.75 212.42 163.48 C 212.94 161.75 215.91 161.35 217.44 160.48 C 218.57 158.44 222.32 157.75 224.43 156.47 C 226.90 154.24 231.28 152.28 234.44 150.50 C 235.55 148.44 239.30 147.76 241.43 146.47 C 242.59 144.45 246.31 143.71 248.44 142.48 C 258.77 135.50 271.18 128.88 282.41 122.49 C 286.40 119.93 290.92 116.20 295.52 115.56 C 294.96 113.00 299.19 112.92 300.32 112.37 C 301.25 110.72 303.31 108.89 305.23 109.50 C 305.85 106.90 308.75 107.05 310.16 106.35 C 310.74 106.15 311.91 105.73 312.49 105.52 L 312.31 104.33 C 313.61 103.54 315.12 103.49 316.66 101.97 C 317.58 101.48 318.56 101.33 319.60 101.51 C 318.94 99.16 323.45 98.46 324.49 98.54 L 324.31 97.31 L 325.48 97.36 C 325.47 96.02 328.40 94.93 329.45 95.50 C 329.14 93.26 332.49 93.44 333.92 92.41 C 331.10 93.55 330.00 90.00 327.37 90.84 C 327.08 90.30 326.52 89.23 326.24 88.69 C 323.52 87.88 319.04 85.94 318.35 84.44 C 317.52 84.38 315.21 83.91 315.48 82.66 L 314.30 82.69 L 314.50 81.49 C 313.41 81.53 308.99 80.86 309.54 78.50 C 307.09 79.80 305.79 75.54 303.28 76.82 L 303.40 75.60 L 302.31 75.70 L 302.43 74.50 C 299.81 74.21 296.48 72.96 295.23 70.53 C 293.46 70.93 291.07 69.44 290.26 67.62 C 289.22 67.78 286.40 67.06 286.47 65.67 L 285.28 65.70 L 285.44 64.49 C 282.83 64.24 279.49 62.96 278.24 60.56 C 275.49 61.12 273.19 57.00 270.34 57.86 C 269.11 54.64 263.56 53.06 261.27 51.71 L 261.42 50.50 C 259.04 51.80 257.75 47.53 255.31 48.84 C 255.33 46.88 252.13 45.54 250.26 45.83 L 250.41 44.46 C 248.46 45.68 246.73 42.48 245.28 42.70 L 245.43 41.51 C 241.95 41.98 238.73 37.28 235.27 37.84 L 235.38 36.61 L 234.28 36.69 L 234.43 35.49 C 232.04 36.79 230.74 32.54 228.27 33.84 L 228.38 32.62 L 227.28 32.70 L 227.48 31.48 C 226.43 31.58 221.93 30.87 222.54 28.51 C 220.07 29.85 218.78 25.56 216.27 26.84 L 216.38 25.61 L 215.29 25.71 L 215.42 24.50 C 213.05 25.77 211.73 21.55 209.27 22.84 L 209.38 21.61 L 208.29 21.69 L 208.49 20.48 C 206.99 22.53 206.39 18.02 204.34 19.86 C 204.27 17.84 201.30 16.62 199.47 16.82 C 199.16 16.25 198.53 15.12 198.22 14.55 C 196.48 15.75 194.93 12.05 193.47 13.15 C 193.26 12.63 192.84 11.61 192.63 11.09 C 192.15 11.30 191.20 11.71 190.73 11.92 C 189.98 11.67 189.24 11.42 188.51 11.17 Z" />
<path fill="#252525" opacity="1.00" d=" M 194.39 37.16 C 196.87 37.62 198.07 36.04 200.00 34.81 C 200.58 35.12 201.74 35.73 202.32 36.03 C 203.57 38.06 206.22 36.58 206.62 39.54 C 207.11 39.48 208.10 39.37 208.59 39.31 L 208.34 40.37 C 210.41 39.44 210.57 41.03 211.51 42.36 C 213.20 42.39 215.84 43.61 216.56 45.45 C 217.04 45.71 218.00 46.22 218.48 46.48 C 219.06 46.70 220.22 47.14 220.80 47.36 C 223.10 45.58 222.36 48.54 223.52 49.34 C 226.30 48.59 227.66 53.01 230.58 52.32 L 230.34 53.36 C 233.04 53.32 236.16 57.12 238.52 58.42 C 249.68 64.53 264.72 71.29 271.59 83.54 C 276.28 87.07 272.83 94.18 272.82 99.29 C 261.96 114.65 239.14 121.64 222.66 117.73 C 215.35 118.69 208.79 114.62 201.79 113.63 C 189.03 106.45 174.57 99.30 162.40 90.61 C 161.49 90.90 160.57 90.90 159.65 90.62 C 147.58 98.58 135.01 106.75 122.07 113.39 C 114.30 107.99 104.99 104.73 98.31 98.14 C 109.91 89.85 125.03 80.38 138.52 73.34 C 150.17 63.65 165.75 58.14 176.36 48.19 C 178.42 49.86 178.92 45.97 180.52 47.48 C 182.69 45.93 186.88 41.86 190.46 41.36 C 190.76 40.84 191.35 39.78 191.64 39.25 C 193.13 39.65 194.63 38.96 194.39 37.16 M 180.47 76.81 C 180.42 77.92 180.44 79.03 180.48 80.14 C 181.21 80.14 182.67 80.15 183.41 80.15 C 190.60 86.18 200.18 89.45 207.52 94.46 C 210.06 94.60 213.36 95.86 214.28 97.28 C 219.44 97.16 224.61 97.16 229.77 97.26 C 231.07 96.03 233.67 93.97 235.90 94.61 C 238.56 91.24 239.62 87.07 239.28 82.82 C 229.53 74.44 217.72 68.96 207.09 61.44 C 198.47 66.81 189.84 74.08 180.47 76.81 Z" />
<path fill="#252525" opacity="1.00" d=" M 31.73 98.88 C 84.43 129.16 135.98 161.70 188.34 192.64 C 190.41 193.98 192.72 192.69 194.59 191.64 C 245.74 160.38 297.29 129.75 348.36 98.37 C 349.53 99.84 350.62 101.39 351.67 102.95 C 299.96 133.87 248.12 164.60 196.34 195.41 C 192.12 197.67 193.92 203.13 193.57 206.98 C 193.70 262.65 193.63 318.33 193.48 374.00 C 191.52 374.00 189.56 374.00 187.60 374.00 C 187.54 315.08 187.41 256.15 187.58 197.23 C 134.87 165.69 81.98 134.45 29.26 102.94 C 30.11 101.60 30.93 100.24 31.73 98.88 Z" />
<path fill="#252525" opacity="1.00" d=" M 26.53 118.27 C 28.56 117.17 30.83 118.35 32.72 119.19 C 79.43 145.79 126.14 172.42 172.88 198.98 C 175.98 200.40 177.29 203.63 177.02 206.91 C 176.73 260.55 176.73 314.20 176.48 367.83 C 177.19 373.43 170.76 374.96 166.92 372.14 C 122.68 347.03 78.56 321.69 34.27 296.68 C 29.75 293.90 22.60 291.63 23.21 285.06 C 23.51 232.02 23.71 178.96 23.77 125.91 C 23.95 123.25 23.82 119.75 26.53 118.27 M 28.58 122.12 C 29.07 177.34 28.77 232.57 28.72 287.80 C 31.91 288.58 36.12 291.49 38.57 293.46 C 40.70 294.72 44.38 295.45 45.58 297.47 C 52.75 300.89 60.57 305.09 66.56 309.47 C 69.35 311.03 73.75 312.18 75.57 314.49 C 78.36 316.04 82.72 317.16 84.56 319.48 C 86.09 320.36 89.06 320.74 89.58 322.48 C 91.69 323.74 95.43 324.44 96.57 326.48 C 99.35 328.08 103.75 329.16 105.57 331.49 C 112.75 334.88 120.20 339.51 126.57 343.48 C 128.68 344.74 132.41 345.44 133.56 347.47 C 138.33 349.65 143.72 352.57 147.56 355.48 C 149.67 356.71 153.42 357.45 154.56 359.48 C 159.81 361.80 165.30 365.00 169.56 368.27 C 170.00 368.37 170.87 368.57 171.31 368.67 C 170.63 313.27 172.05 257.79 170.63 202.43 C 169.88 202.51 168.39 202.67 167.64 202.75 C 161.73 197.35 152.49 194.39 146.44 189.53 C 143.64 187.93 139.26 186.84 137.43 184.51 C 135.30 183.27 131.59 182.55 130.42 180.53 C 128.90 179.61 125.93 179.27 125.44 177.53 C 122.65 175.94 118.27 174.84 116.43 172.52 C 111.66 170.36 106.30 167.42 102.44 164.53 C 97.06 161.96 91.00 158.69 86.43 155.53 C 82.42 153.57 77.63 151.07 74.44 148.52 C 71.65 146.95 67.26 145.83 65.44 143.52 C 53.18 136.60 40.09 130.39 28.58 122.12 Z" />
<path fill="#252525" opacity="1.00" d=" M 348.73 118.62 C 352.70 116.06 356.81 119.69 356.32 123.98 C 356.65 177.00 356.28 230.06 357.32 283.08 C 357.72 287.24 355.94 291.34 352.02 293.10 C 305.66 319.43 259.36 345.88 213.02 372.22 C 209.30 374.99 203.08 373.57 203.81 368.05 C 203.42 315.02 203.75 261.96 203.12 208.92 C 202.98 205.25 203.22 200.78 207.12 199.09 C 254.34 172.31 301.39 145.17 348.73 118.62 M 345.76 125.53 C 344.52 127.96 341.19 129.23 338.57 129.50 L 338.71 130.71 L 337.53 130.66 C 337.58 131.98 334.55 133.14 333.57 132.47 L 333.74 133.82 C 333.19 133.74 332.07 133.58 331.52 133.50 C 331.33 134.61 330.50 135.29 329.02 135.53 C 328.59 135.92 327.74 136.70 327.32 137.10 C 325.97 136.26 324.26 139.92 322.47 138.51 C 322.99 140.85 318.56 141.59 317.51 141.47 L 317.71 142.69 L 316.62 142.60 L 316.72 143.83 C 313.24 143.28 310.03 147.97 306.57 147.50 L 306.71 148.71 L 305.54 148.66 C 305.64 150.00 302.66 150.95 301.77 150.54 C 300.53 152.97 297.19 154.23 294.58 154.50 L 294.71 155.70 L 293.62 155.61 L 293.72 156.84 C 291.25 155.52 289.96 159.78 287.57 158.49 L 287.71 159.69 L 286.62 159.59 L 286.72 160.84 C 284.25 159.52 282.95 163.76 280.57 162.50 L 280.70 163.70 L 279.61 163.60 L 279.72 164.83 C 277.21 163.56 275.91 167.82 273.46 166.52 C 274.00 168.86 269.56 169.61 268.40 169.49 C 267.95 172.04 262.34 174.04 259.46 174.52 C 259.97 176.85 255.55 177.65 254.41 177.48 C 253.66 180.97 248.06 180.52 245.32 184.04 C 243.96 183.35 242.29 186.85 240.58 185.51 L 240.72 186.70 L 239.63 186.61 L 239.73 187.84 C 237.22 186.54 235.91 190.84 233.45 189.50 C 234.06 191.87 229.58 192.56 228.52 192.48 L 228.71 193.70 L 227.62 193.60 L 227.73 194.84 C 225.26 193.54 223.96 197.78 221.57 196.50 L 221.70 197.69 L 220.62 197.60 L 220.72 198.85 C 218.28 197.64 217.16 201.39 214.78 200.64 C 214.37 202.82 211.94 202.64 210.31 203.38 C 206.51 258.12 210.68 314.46 208.17 369.60 C 211.55 367.41 214.63 364.65 218.43 363.47 C 219.55 361.42 223.31 360.71 225.42 359.47 C 227.25 357.14 231.64 356.05 234.43 354.46 C 240.66 350.32 248.12 345.75 255.43 342.47 C 259.25 339.57 264.67 336.63 269.44 334.47 C 270.58 332.44 274.32 331.70 276.44 330.47 C 278.24 328.16 282.64 327.04 285.42 325.48 C 285.90 323.73 288.91 323.35 290.43 322.47 C 291.56 320.42 295.31 319.73 297.43 318.47 C 299.27 316.17 303.64 315.03 306.43 313.48 C 309.61 310.94 314.44 308.40 318.44 306.47 C 320.28 304.17 324.66 303.02 327.44 301.47 C 329.23 299.15 333.66 298.05 336.43 296.47 C 336.94 294.73 339.90 294.36 341.42 293.47 C 342.59 291.45 346.30 290.70 348.44 289.49 C 348.10 288.28 350.71 287.31 351.28 287.82 C 351.46 232.67 350.43 177.26 351.73 122.29 C 350.12 123.81 347.94 126.05 345.76 125.53 Z" />
<path fill="#252525" opacity="1.00" d=" M 48.39 162.77 C 50.08 163.00 51.79 163.07 53.49 163.20 C 57.96 166.66 63.94 169.83 69.50 171.04 C 78.77 186.49 71.63 207.25 73.57 224.85 C 88.20 214.89 104.86 208.69 120.30 199.87 C 121.93 200.22 124.88 199.34 125.46 201.33 C 135.38 204.64 143.78 211.76 153.82 214.88 C 153.20 216.58 152.41 218.21 151.77 219.89 C 138.69 223.46 126.63 231.59 114.42 235.65 C 114.26 237.40 111.37 236.69 110.20 237.95 C 111.34 238.64 111.80 239.50 111.58 240.53 C 127.07 269.98 142.65 300.48 157.93 330.43 C 157.41 329.97 156.38 329.05 155.86 328.59 C 155.47 329.14 154.68 330.24 154.28 330.79 C 146.63 325.25 137.45 321.42 128.79 317.65 C 127.13 316.04 125.40 314.49 123.74 312.88 C 113.79 289.95 102.45 267.96 92.18 245.43 C 86.36 249.07 79.74 251.30 73.72 254.25 C 73.74 265.21 73.98 276.18 73.61 287.14 C 71.85 287.02 70.08 286.98 68.31 286.98 C 63.41 283.11 55.28 278.21 48.30 276.44 C 48.19 238.55 48.03 200.65 48.39 162.77 Z" />
<path fill="#252525" opacity="1.00" d=" M 299.65 174.29 C 305.76 169.83 314.81 172.46 321.21 175.30 C 324.66 177.89 327.16 181.67 329.75 184.74 C 335.87 198.85 316.39 201.56 308.78 209.99 C 306.48 206.76 304.01 203.67 301.50 200.60 C 298.21 200.40 294.89 199.21 291.28 199.79 C 289.59 201.50 286.04 201.93 283.57 202.57 C 271.73 208.46 261.65 220.09 255.57 231.55 C 254.61 235.01 253.80 239.58 251.71 242.21 C 250.47 253.07 250.96 264.49 250.75 275.75 C 252.43 277.45 253.01 280.96 253.54 283.41 C 256.61 289.51 265.31 292.54 272.75 291.23 C 286.59 287.35 297.08 275.76 307.11 265.40 C 307.12 260.00 307.13 254.60 307.39 249.20 C 301.94 253.00 295.53 256.67 289.59 258.51 C 289.03 258.80 287.93 259.36 287.38 259.64 L 287.47 260.66 C 285.53 260.33 283.85 261.75 282.01 262.15 C 281.29 254.12 278.73 244.67 284.40 237.82 C 300.60 232.28 316.43 222.58 332.11 214.83 C 333.26 231.74 333.28 248.94 332.24 265.83 C 319.90 294.54 288.50 309.55 260.06 317.87 C 252.20 318.77 244.82 316.24 238.17 312.25 C 231.69 305.69 227.02 297.29 226.34 288.20 C 226.03 287.70 225.43 286.68 225.13 286.18 C 225.19 272.00 224.90 258.63 228.71 244.95 C 232.40 238.91 232.68 232.44 236.41 227.53 C 236.67 225.97 237.03 223.13 239.41 222.49 C 249.09 201.92 268.97 185.41 289.57 177.28 C 292.13 175.38 296.22 174.12 299.65 174.29 Z" />
</g>
</svg>
