<?xml version="1.0" encoding="utf-8"?>
<svg xmlns="http://www.w3.org/2000/svg" height="256" width="256" viewBox="0 0 256 256">
  <g>
    <path id="path1" transform="rotate(0,128,128) translate(0,119.137599818256) scale(0.182261401962249,0.182261401962249)  " fill="#FFFFFF" d="M-0.096000000834465,29.6653366088867L77.568000793457,29.6653366088867 82.4653167724609,30.0393981933594 86.5965042114258,31.1098365783691 89.9964370727539,32.7990226745605 92.6999969482422,35.0293350219727 94.7420654296875,37.7231483459473 96.1575012207031,40.8028335571289 96.9811859130859,44.1907730102539 97.2480010986328,47.8093338012695 96.9811859130859,51.8825836181641 96.1575012207031,55.5733337402344 94.7420654296875,58.8320846557617 92.6999969482422,61.6093368530273 89.9964370727539,63.8555870056152 86.5965042114258,65.5213394165039 82.4653167724609,66.5570907592773 77.568000793457,66.9133377075195 23.6160011291504,66.9133377075195 20.5380001068115,67.5733337402344 18.07200050354,69.4573364257813 16.4340000152588,72.4213333129883 15.8400001525879,76.3213348388672 15.8400001525879,97.1533355712891 -0.096000000834465,97.1533355712891 -0.096000000834465,77.0893325805664 0.228749990463257,72.9707107543945 1.16999995708466,69.1603317260742 2.6782500743866,65.7324600219727 4.7039999961853,62.7613372802734 7.19775009155273,60.3212127685547 10.1100006103516,58.4863357543945 13.3912506103516,57.3309631347656 16.992000579834,56.9293365478516 73.536003112793,56.9293365478516 77.1150054931641,56.3143348693848 79.5599975585938,54.5293350219727 80.9609985351563,51.6643333435059 81.4079971313477,47.8093338012695 80.9609985351563,44.566333770752 79.5599975585938,41.7373352050781 77.1150054931641,39.7363357543945 75.4728775024414,39.1757125854492 73.536003112793,38.9773368835449 -0.096000000834465,38.9773368835449 -0.096000000834465,29.6653366088867z M176.639343261719,29.7613372802734L217.535339355469,29.7613372802734 217.535339355469,39.1693344116211 180.671325683594,39.1693344116211 178.738571166992,39.376148223877 177.107330322266,39.9598350524902 174.695343017578,42.0373344421387 173.327331542969,44.9608345031738 172.89533996582,48.2893333435059 172.89533996582,78.5293350219727 172.624221801758,82.6054000854492 171.788345336914,86.2438354492188 170.353958129883,89.4120254516602 168.287338256836,92.0773391723633 165.554718017578,94.207145690918 162.122329711914,95.7688369750977 157.956451416016,96.7297744750977 153.023330688477,97.0573348999023 112.127334594727,97.0573348999023 112.127334594727,87.7453384399414 148.991333007813,87.7453384399414 152.570327758789,87.1153411865234 155.015335083008,85.2973403930664 156.41633605957,82.3993377685547 156.863342285156,78.5293350219727 156.863342285156,48.2893333435059 157.13427734375,44.6542701721191 157.968841552734,41.2228355407715 159.399658203125,38.0816497802734 161.459350585938,35.3173370361328 164.180526733398,33.0165252685547 167.595840454102,31.2658367156982 171.737899780273,30.1518993377686 176.639343261719,29.7613372802734z M232.606674194336,29.7613372802734L250.174682617188,29.7613372802734 250.174682617188,48.1933364868164 250.578186035156,51.5368347167969 251.890686035156,54.493335723877 254.265182495117,56.6038360595703 255.898483276367,57.1983985900879 257.854675292969,57.4093360900879 315.838684082031,57.4093360900879 315.838684082031,29.7613372802734 331.966674804688,29.7613372802734 331.966674804688,97.0573348999023 315.838684082031,97.0573348999023 315.838684082031,66.8173370361328 252.574676513672,66.8173370361328 248.078430175781,66.4265899658203 244.108673095703,65.3113403320313 240.687927246094,63.5570869445801 237.838684082031,61.2493362426758 235.583419799805,58.4735870361328 233.944671630859,55.3153343200684 232.944931030273,51.8600845336914 232.606674194336,48.1933364868164 232.606674194336,29.7613372802734z M422.207336425781,29.6653366088867L499.871337890625,29.6653366088867 504.768646240234,30.0393981933594 508.899841308594,31.1098365783691 512.299743652344,32.7990226745605 515.003356933594,35.0293350219727 517.04541015625,37.7231483459473 518.460815429688,40.8028335571289 519.284545898438,44.1907730102539 519.551330566406,47.8093338012695 519.284545898438,51.8825836181641 518.460815429688,55.5733337402344 517.04541015625,58.8320846557617 515.003356933594,61.6093368530273 512.299743652344,63.8555870056152 508.899841308594,65.5213394165039 504.768646240234,66.5570907592773 499.871337890625,66.9133377075195 445.919342041016,66.9133377075195 442.841339111328,67.5733337402344 440.375335693359,69.4573364257813 438.737335205078,72.4213333129883 438.143341064453,76.3213348388672 438.143341064453,97.1533355712891 422.207336425781,97.1533355712891 422.207336425781,77.0893325805664 422.532073974609,72.9707107543945 423.473327636719,69.1603317260742 424.981597900391,65.7324600219727 427.00732421875,62.7613372802734 429.501098632813,60.3212127685547 432.413330078125,58.4863357543945 435.694610595703,57.3309631347656 439.295349121094,56.9293365478516 495.83935546875,56.9293365478516 499.418334960938,56.3143348693848 501.863342285156,54.5293350219727 503.264343261719,51.6643333435059 503.711334228516,47.8093338012695 503.264343261719,44.566333770752 501.863342285156,41.7373352050781 499.418334960938,39.7363357543945 497.776214599609,39.1757125854492 495.83935546875,38.9773368835449 422.207336425781,38.9773368835449 422.207336425781,29.6653366088867z M613.0546875,30.0493316650391L629.374694824219,30.0493316650391 629.374694824219,48.577335357666 628.995178222656,52.4998359680176 627.922668457031,56.1253356933594 626.256164550781,59.3368339538574 624.094665527344,62.017333984375 626.337158203125,64.7818374633789 627.994689941406,68.0053329467773 629.022216796875,71.6428375244141 629.374694824219,75.6493377685547 629.374694824219,97.0573348999023 613.0546875,97.0573348999023 613.0546875,75.6493377685547 612.556701660156,72.1378326416016 611.15869140625,69.3733367919922 609.004699707031,67.5628356933594 606.238647460938,66.9133377075195 534.4306640625,66.9133377075195 534.4306640625,57.4093360900879 606.238647460938,57.4093360900879 609.004699707031,56.7598342895508 611.15869140625,54.949333190918 612.556701660156,52.1848335266113 613.0546875,48.6733360290527 613.0546875,30.0493316650391z M663.453979492188,29.8573379516602L739.197998046875,29.8573379516602 739.197998046875,39.2653350830078 667.389953613281,39.2653350830078 664.407958984375,39.8623352050781 661.965942382813,41.593334197998 660.315979003906,44.368335723877 659.7099609375,48.0973358154297 659.7099609375,79.2013397216797 660.315979003906,82.4443359375 661.965942382813,85.2733306884766 664.407958984375,87.2743301391602 665.847229003906,87.8349609375 667.389953613281,88.033332824707 716.061950683594,88.033332824707 717.931335449219,87.8349609375 719.514953613281,87.2743301391602 721.869995117188,85.2733306884766 723.216979980469,82.4443359375 723.64599609375,79.2013397216797 723.64599609375,58.6573333740234 740.445983886719,58.6573333740234 740.445983886719,79.2013397216797 740.124633789063,82.7330856323242 739.170959472656,86.0713348388672 737.600891113281,89.1305847167969 735.429992675781,91.8253402709961 732.674133300781,94.0700836181641 729.348999023438,95.7793350219727 725.470336914063,96.8675842285156 721.053955078125,97.2493362426758 663.453979492188,97.2493362426758 658.687561035156,96.8675842285156 654.662475585938,95.7793350219727 651.346130371094,94.0700836181641 648.705932617188,91.8253402709961 646.709289550781,89.1305847167969 645.323486328125,86.0713348388672 644.515930175781,82.7330856323242 644.253967285156,79.2013397216797 644.253967285156,49.0573348999023 644.515930175781,45.035083770752 645.323486328125,41.3593330383301 646.709289550781,38.0885848999023 648.705932617188,35.2813339233398 651.346130371094,32.9960861206055 654.662475585938,31.2913379669189 658.687561035156,30.2255878448486 663.453979492188,29.8573379516602z M830.783996582031,29.8573379516602L846.6240234375,29.8573379516602 846.6240234375,78.7213363647461 847.246520996094,82.5913391113281 848.940002441406,85.4893341064453 851.443542480469,87.3073348999023 854.496032714844,87.9373321533203 928.223999023438,87.9373321533203 928.223999023438,97.2493362426758 850.559997558594,97.2493362426758 845.658569335938,96.9217758178711 841.516479492188,95.9608383178711 838.101196289063,94.3991470336914 835.380004882813,92.2693328857422 833.3203125,89.6040191650391 831.889526367188,86.4358367919922 831.054931640625,82.7974014282227 830.783996582031,78.7213363647461 830.783996582031,29.8573379516602z M942.816040039063,29.8573379516602L959.903991699219,29.8573379516602 959.903991699219,97.2493362426758 942.816040039063,97.2493362426758 942.816040039063,29.8573379516602z M973.919982910156,29.8573379516602L1051.96801757813,29.8573379516602 1056.58972167969,30.2248382568359 1060.59155273438,31.2853374481201 1063.974609375,32.9758377075195 1066.73999023438,35.2333374023438 1068.88891601563,37.9948348999023 1070.42248535156,41.1973342895508 1071.341796875,44.7778358459473 1071.64794921875,48.6733360290527 1071.64794921875,97.1533355712891 1055.0400390625,97.1533355712891 1055.0400390625,48.6733360290527 1054.58557128906,44.9803352355957 1053.20397949219,42.0973358154297 1050.86853027344,40.2223320007324 1047.55200195313,39.5533332824707 990.623962402344,39.5533332824707 990.623962402344,97.0573348999023 974.015991210938,97.0573348999023 973.919982910156,29.8573379516602z M1164.9599609375,30.0493316650391L1181.28002929688,30.0493316650391 1181.28002929688,48.577335357666 1180.90051269531,52.4998359680176 1179.82800292969,56.1253356933594 1178.16149902344,59.3368339538574 1176,62.017333984375 1178.24255371094,64.7818374633789 1179.90002441406,68.0053329467773 1180.92749023438,71.6428375244141 1181.28002929688,75.6493377685547 1181.28002929688,97.0573348999023 1164.9599609375,97.0573348999023 1164.9599609375,75.6493377685547 1164.4619140625,72.1378326416016 1163.06396484375,69.3733367919922 1160.91003417969,67.5628356933594 1158.14404296875,66.9133377075195 1086.23999023438,66.9133377075195 1086.23999023438,57.3133354187012 1158.14404296875,57.3133354187012 1160.91003417969,56.6788368225098 1163.06396484375,54.9013366699219 1164.4619140625,52.1698341369629 1164.9599609375,48.6733360290527 1164.9599609375,30.0493316650391z M1220.35131835938,39.0733337402344L1218.513671875,39.2756462097168 1216.95385742188,39.845832824707 1214.62744140625,41.8693351745605 1213.29089355469,44.7028350830078 1212.86340332031,47.9053344726563 1212.86340332031,60.001335144043 1269.02331542969,60.001335144043 1270.63903808594,59.767520904541 1272.21081542969,59.1028366088867 1273.68591308594,58.0623970031738 1275.01135253906,56.7013359069824 1277.001953125,53.2378349304199 1277.56115722656,51.2456474304199 1277.75939941406,49.1533355712891 1277.56115722656,47.1491470336914 1277.001953125,45.2698364257813 1275.01135253906,42.0613327026367 1272.21081542969,39.878833770752 1270.63903808594,39.2820205688477 1269.02331542969,39.0733337402344 1220.35131835938,39.0733337402344z M1215.26330566406,29.9533386230469L1272.76733398438,29.9533386230469 1277.12036132813,30.392463684082 1280.95141601563,31.6303386688232 1284.24243164063,33.5477142333984 1286.97534179688,36.0253372192383 1289.13244628906,38.943962097168 1290.69543457031,42.1843338012695 1291.64636230469,45.6272087097168 1291.96740722656,49.1533355712891 1291.64636230469,53.1851463317871 1290.69543457031,56.9458351135254 1289.13244628906,60.353271484375 1286.97534179688,63.3253326416016 1284.24243164063,65.7798919677734 1280.95141601563,67.6348342895508 1277.12036132813,68.8080215454102 1272.76733398438,69.2173309326172 1212.86340332031,69.2173309326172 1212.86340332031,77.9533386230469 1213.29089355469,81.6418380737305 1214.62744140625,84.4213409423828 1216.95385742188,86.1748428344727 1220.35131835938,86.7853393554688 1291.96740722656,86.7853393554688 1291.96740722656,97.1533355712891 1215.26330566406,97.1533355712891 1210.93786621094,96.7811508178711 1207.11987304688,95.7058334350586 1203.83056640625,93.9892730712891 1201.09130859375,91.6933364868164 1198.92370605469,88.8798980712891 1197.34887695313,85.6108322143555 1196.38830566406,81.9480209350586 1196.06335449219,77.9533386230469 1196.06335449219,47.9053344726563 1196.38830566406,44.3225860595703 1197.34887695313,40.9693336486816 1198.92370605469,37.9220848083496 1201.09130859375,35.2573356628418 1203.83056640625,33.051586151123 1207.11987304688,31.3813381195068 1210.93786621094,30.3230876922607 1215.26330566406,29.9533386230469z M1326.33605957031,29.9533386230469L1404.57604980469,29.9533386230469 1404.57604980469,39.5533332824707 1330.94409179688,39.5533332824707 1327.47607421875,40.2358322143555 1325.08813476563,42.1333351135254 1323.7080078125,45.0208358764648 1323.26403808594,48.6733360290527 1323.26403808594,97.1533355712891 1306.56005859375,97.1533355712891 1306.56005859375,48.6733360290527 1306.86254882813,44.8095245361328 1307.77355957031,41.2528343200684 1309.298828125,38.0673980712891 1311.44409179688,35.3173370361328 1314.21472167969,33.0667762756348 1317.61657714844,31.3798370361328 1321.65515136719,30.320650100708 1326.33605957031,29.9533386230469z" />
  </g>
</svg>

