<?xml version="1.0" encoding="UTF-8" ?>
<!DOCTYPE svg PUBLIC "-//W3C//DTD SVG 1.1//EN" "http://www.w3.org/Graphics/SVG/1.1/DTD/svg11.dtd">
<svg width="1000pt" height="1000pt" viewBox="0 0 1000 1000" version="1.1" xmlns="http://www.w3.org/2000/svg">
<g id="#ffffffff">
<path fill="#ffffff" opacity="1.00" d=" M 0.00 483.03 C 16.09 483.05 32.17 482.86 48.25 482.73 C 50.01 482.78 53.53 482.86 55.29 482.90 C 55.25 484.28 55.92 484.95 57.31 484.91 C 57.17 487.91 57.25 490.93 56.66 493.90 C 54.89 495.39 52.50 495.72 50.27 495.80 C 38.58 495.40 26.88 494.92 15.18 495.37 C 13.86 494.38 12.14 494.63 10.86 495.54 C 9.23 495.97 7.60 496.41 5.97 496.84 C 4.29 496.96 2.93 498.24 2.76 499.93 C 1.83 503.15 0.86 506.31 0.00 509.57 L 0.00 483.03 Z" />
<path fill="#ffffff" opacity="1.00" d=" M 863.69 488.79 C 863.81 485.17 867.33 482.59 870.80 482.79 C 882.06 482.63 893.34 482.72 904.63 482.64 C 906.81 483.92 908.66 486.07 908.74 488.72 C 908.77 489.93 908.82 491.14 908.97 492.36 C 909.02 493.05 909.13 494.42 909.18 495.11 L 907.88 494.96 C 906.66 494.70 905.96 495.17 905.76 496.38 C 905.67 496.72 905.50 497.40 905.41 497.73 L 904.42 497.69 C 890.77 496.97 877.11 496.93 863.46 496.97 C 863.48 494.23 863.55 491.50 863.69 488.79 Z" />
</g>
<g id="#020202ff">
<path fill="#020202" opacity="1.00" d=" M 0.00 476.03 C 21.23 476.78 42.91 473.68 63.82 478.12 C 70.74 482.78 68.44 491.32 67.67 498.24 C 66.28 498.47 65.53 499.30 65.44 500.72 C 62.44 501.62 59.39 502.49 56.24 502.63 C 42.78 502.23 29.27 501.53 15.84 502.84 C 13.29 503.59 12.16 506.31 12.00 508.75 C 11.46 513.74 11.06 518.77 10.69 523.79 C 7.14 524.12 3.56 524.16 0.00 524.36 L 0.00 509.57 C 0.86 506.31 1.83 503.15 2.76 499.93 C 4.47 499.91 5.88 498.54 5.97 496.84 C 7.60 496.41 9.23 495.97 10.86 495.54 C 12.10 496.07 13.38 496.21 14.71 495.96 C 26.56 495.70 38.42 496.16 50.27 495.80 C 52.50 495.72 54.89 495.39 56.66 493.90 C 57.25 490.93 57.17 487.91 57.31 484.91 C 57.38 483.51 56.71 482.85 55.29 482.90 C 53.53 482.86 50.01 482.78 48.25 482.73 C 32.18 481.96 16.09 481.92 0.00 481.97 L 0.00 476.03 Z" />
<path fill="#020202" opacity="1.00" d=" M 124.93 476.45 C 134.91 475.50 144.97 475.97 154.99 476.00 C 155.00 477.45 155.00 480.36 155.00 481.81 C 145.91 482.04 136.81 482.34 127.74 483.00 C 127.29 483.03 126.39 483.09 125.93 483.12 C 124.44 482.78 123.40 484.14 123.80 485.55 C 123.80 486.32 123.79 487.87 123.79 488.64 C 123.48 496.82 123.52 505.03 123.30 513.22 C 123.15 515.25 122.77 517.73 120.79 518.82 C 119.82 519.19 119.19 519.86 118.88 520.86 C 117.68 524.43 112.60 523.21 110.00 523.91 C 99.99 524.26 89.91 524.43 79.95 523.30 C 80.12 521.69 80.08 520.07 79.83 518.49 C 88.16 518.17 96.51 518.28 104.83 517.67 C 107.04 517.20 111.17 517.32 111.19 514.30 C 111.80 505.60 111.73 496.89 111.92 488.20 C 112.19 485.74 112.96 483.31 114.30 481.23 C 115.17 480.74 115.77 480.02 116.09 479.09 C 117.84 477.82 120.02 477.18 122.16 477.10 C 123.17 477.25 124.09 477.03 124.93 476.45 Z" />
<path fill="#020202" opacity="1.00" d=" M 165.93 475.97 C 170.03 476.03 174.15 476.11 178.26 476.21 C 178.43 481.61 178.67 487.02 178.95 492.43 L 178.99 493.28 C 178.94 494.48 179.51 495.11 180.71 495.16 C 181.33 495.21 182.58 495.31 183.20 495.37 C 197.06 496.19 210.95 496.30 224.82 495.91 L 224.90 494.97 C 225.17 488.63 225.08 482.29 225.07 475.96 C 227.89 476.02 233.51 476.15 236.33 476.21 C 235.85 492.21 235.84 508.22 236.43 524.23 C 233.61 524.16 227.96 524.02 225.14 523.95 C 225.11 516.97 225.20 510.00 224.87 503.04 L 224.79 502.11 C 209.08 501.64 193.38 502.16 177.68 502.50 C 172.10 502.46 166.23 497.94 165.88 492.19 C 165.68 486.79 165.91 481.36 165.93 475.97 Z" />
<path fill="#020202" opacity="1.00" d=" M 300.94 476.91 C 316.27 475.68 331.66 475.77 347.02 475.95 C 353.24 476.26 360.28 475.60 365.74 479.30 C 366.20 480.18 366.89 480.80 367.82 481.16 C 369.47 485.88 372.35 493.10 367.70 496.77 C 366.50 497.52 365.52 498.54 364.80 499.75 C 363.14 502.11 360.02 502.69 357.32 502.66 C 343.78 502.17 330.20 501.55 316.68 502.74 C 314.25 503.08 313.07 505.62 312.77 507.80 C 311.95 513.16 311.95 518.60 311.58 524.02 C 308.81 523.96 303.27 523.85 300.50 523.79 C 300.64 518.78 300.64 513.81 300.92 508.83 C 301.23 505.79 302.05 502.47 304.38 500.35 C 305.30 499.94 305.95 499.27 306.32 498.33 C 309.38 495.07 314.68 496.22 318.80 495.77 C 330.89 495.90 343.02 496.27 355.08 495.17 C 356.53 494.18 357.70 492.86 358.98 491.68 L 359.41 491.27 C 359.21 490.25 358.81 488.22 358.61 487.20 L 358.38 485.83 C 358.48 484.46 357.65 482.97 356.09 483.27 C 355.83 483.25 355.31 483.21 355.05 483.19 C 337.14 481.60 319.15 481.70 301.20 482.12 C 301.23 480.37 301.15 478.63 300.94 476.91 Z" />
<path fill="#020202" opacity="1.00" d=" M 471.92 476.49 C 489.92 475.33 508.07 475.64 526.08 476.81 C 525.85 478.54 525.76 480.29 525.80 482.05 C 508.80 481.88 491.75 481.43 474.79 482.83 C 472.25 483.78 470.28 486.06 469.72 488.71 C 469.17 496.57 468.74 504.52 469.56 512.38 C 469.95 514.77 471.71 517.27 474.24 517.63 C 486.39 518.35 498.59 518.04 510.74 517.27 C 511.16 517.24 511.99 517.19 512.40 517.16 C 513.58 517.18 514.22 516.60 514.32 515.44 C 514.41 514.88 514.57 513.76 514.66 513.20 C 515.31 507.68 515.77 502.15 516.26 496.64 C 519.99 496.80 523.74 496.95 527.50 497.08 C 527.32 502.77 527.40 508.50 527.07 514.19 C 526.88 515.90 526.58 518.02 525.01 519.02 C 524.06 519.38 523.39 520.02 522.98 520.95 C 520.89 523.49 517.33 524.13 514.21 524.24 C 500.06 524.18 485.91 524.21 471.77 524.36 C 468.78 524.04 464.44 524.26 463.12 520.87 C 462.81 519.88 462.17 519.19 461.21 518.83 C 459.34 517.84 458.81 515.56 458.95 513.62 C 459.01 512.64 459.02 511.66 458.96 510.69 C 458.76 505.67 458.49 500.70 458.41 495.70 C 458.44 492.86 458.55 490.11 458.76 487.32 C 459.93 482.45 463.43 476.71 469.13 477.02 C 470.13 477.21 471.06 477.03 471.92 476.49 Z" />
<path fill="#020202" opacity="1.00" d=" M 591.55 475.44 C 595.28 475.85 599.26 475.69 602.87 476.99 C 603.41 488.99 602.54 501.02 603.08 513.03 C 603.03 515.75 605.78 517.45 608.24 517.59 C 625.83 518.45 643.45 517.96 661.05 518.00 C 660.97 520.11 660.88 522.22 660.80 524.34 C 642.13 523.68 623.46 524.18 604.80 524.22 C 601.75 523.94 598.32 523.99 596.04 521.68 C 595.18 520.72 594.27 519.81 593.32 518.97 C 592.26 518.00 591.90 516.56 591.83 515.20 C 591.71 501.94 592.04 488.68 591.55 475.44 Z" />
<path fill="#020202" opacity="1.00" d=" M 671.54 475.60 C 675.43 475.90 679.41 476.19 683.30 476.76 C 682.88 492.66 682.90 508.57 683.29 524.48 C 679.44 524.34 675.69 524.28 671.87 524.26 C 672.10 508.03 672.08 491.81 671.54 475.60 Z" />
<path fill="#020202" opacity="1.00" d=" M 693.51 476.21 C 711.98 476.46 730.66 474.82 749.05 476.51 C 749.90 477.05 750.84 477.23 751.85 477.03 C 754.44 476.87 756.97 478.09 758.80 479.88 C 759.40 480.55 760.02 481.21 760.68 481.86 C 762.48 484.90 762.64 488.56 762.81 492.01 C 763.32 502.67 763.03 513.36 763.01 524.04 C 760.18 523.98 754.52 523.85 751.69 523.79 C 751.84 512.09 752.71 500.29 751.33 488.64 C 750.76 485.89 748.55 483.52 745.61 483.51 C 732.46 482.70 719.21 482.35 706.06 483.18 L 705.15 483.32 C 704.73 496.82 704.93 510.33 705.34 523.83 C 701.42 523.84 697.59 523.92 693.71 523.87 C 694.11 507.98 694.22 492.08 693.51 476.21 Z" />
<path fill="#020202" opacity="1.00" d=" M 855.10 480.17 C 860.88 475.58 869.11 476.69 875.97 475.95 C 888.82 476.06 902.15 474.79 914.67 478.39 C 915.90 479.88 917.09 481.41 918.20 483.01 C 919.07 485.36 919.34 487.93 919.14 490.43 C 918.94 491.78 918.78 493.16 919.02 494.53 C 919.11 495.53 919.29 497.51 919.38 498.50 C 918.76 498.58 917.52 498.75 916.89 498.84 C 915.80 498.89 915.11 499.47 914.82 500.57 C 913.80 503.77 910.06 504.21 907.20 504.28 C 892.79 504.19 878.38 503.95 863.98 503.98 L 862.83 503.98 C 863.01 507.13 863.39 510.40 863.67 513.57 L 863.75 514.46 C 863.73 515.68 864.32 516.29 865.53 516.29 C 866.20 516.34 867.52 516.42 868.18 516.46 C 885.51 517.31 902.88 517.18 920.23 516.54 C 920.16 518.41 920.03 522.14 919.97 524.01 C 900.12 523.64 880.22 524.91 860.43 523.39 C 855.61 522.56 851.71 518.13 851.69 513.21 C 851.63 504.86 851.53 496.52 851.84 488.20 C 852.02 486.40 852.55 484.65 853.38 483.06 C 854.06 482.16 854.63 481.20 855.10 480.17 M 870.80 482.79 C 867.33 482.59 863.81 485.17 863.69 488.79 C 863.49 492.05 863.30 495.19 863.41 498.51 L 863.43 497.84 C 877.09 498.15 890.75 498.05 904.42 497.69 L 905.41 497.73 C 905.50 497.40 905.67 496.72 905.76 496.38 C 907.20 496.99 907.91 496.52 907.88 494.96 L 909.18 495.11 C 909.13 494.42 909.02 493.05 908.97 492.36 C 911.16 492.68 910.89 488.20 908.74 488.72 C 908.66 486.07 906.81 483.92 904.63 482.64 L 905.33 482.64 C 893.84 481.59 882.27 481.91 870.80 482.79 Z" />
<path fill="#020202" opacity="1.00" d=" M 946.16 476.08 C 964.10 475.98 982.05 475.99 1000.00 476.00 L 1000.00 482.99 C 981.67 482.94 963.31 482.66 945.02 483.98 C 943.65 483.98 942.98 484.66 943.01 486.03 C 942.99 486.71 942.94 488.08 942.92 488.76 C 942.24 500.48 941.99 512.22 941.90 523.96 C 938.29 524.16 934.59 524.04 931.01 524.00 C 931.09 511.94 930.52 499.86 931.06 487.82 C 931.31 485.52 931.93 483.29 932.58 481.09 C 934.01 481.03 934.85 480.29 935.08 478.85 C 937.31 478.15 939.55 477.45 941.79 476.77 C 943.26 477.47 944.97 477.25 946.16 476.08 Z" />
<path fill="#020202" opacity="1.00" d=" M 436.79 476.71 C 440.65 476.90 444.48 476.95 448.36 476.99 C 448.14 481.73 448.27 486.46 448.17 491.22 C 448.27 493.43 447.44 495.63 445.49 496.82 C 444.17 497.38 443.63 498.96 444.77 500.01 C 446.32 502.52 447.69 505.25 448.09 508.21 C 448.21 513.38 448.19 518.59 448.43 523.78 C 444.50 523.80 440.62 523.90 436.70 523.89 C 436.59 518.42 436.44 512.96 436.25 507.51 C 436.24 506.99 436.20 505.94 436.18 505.42 C 436.35 504.27 435.61 502.87 434.30 503.03 C 433.83 502.99 432.89 502.90 432.41 502.86 C 415.36 501.61 398.24 501.79 381.16 502.12 C 381.18 500.26 381.08 498.41 380.85 496.58 C 381.36 496.53 382.36 496.44 382.87 496.40 C 399.23 495.57 415.63 496.37 432.01 495.93 C 434.09 496.01 435.86 494.27 436.33 492.34 C 437.00 487.16 436.65 481.90 436.79 476.71 Z" />
<path fill="#020202" opacity="1.00" d=" M 829.75 476.69 C 833.48 476.74 837.14 476.63 840.90 476.58 C 840.97 481.10 841.22 485.64 841.20 490.18 C 840.92 493.52 839.24 496.56 838.96 499.90 C 839.21 502.76 840.42 505.44 840.82 508.29 C 841.05 513.43 841.16 518.62 841.48 523.78 C 837.50 523.80 833.63 523.90 829.70 523.89 C 829.58 518.42 829.44 512.96 829.25 507.51 C 829.24 506.99 829.20 505.94 829.18 505.42 C 829.34 504.27 828.61 502.87 827.30 503.03 C 826.83 502.99 825.89 502.90 825.41 502.86 C 808.14 501.61 790.81 501.90 773.51 501.96 C 773.76 499.85 774.02 497.74 774.28 495.64 C 791.10 496.05 807.97 496.48 824.79 495.53 C 825.47 495.47 826.83 495.36 827.51 495.30 C 828.71 495.27 829.29 494.64 829.26 493.43 L 829.31 492.55 C 829.65 487.27 829.62 481.96 829.75 476.69 Z" />
</g>
<g id="#434343ff">
<path fill="#434343" opacity="1.00" d=" M 122.16 477.10 C 122.69 475.38 123.61 475.16 124.93 476.45 C 124.09 477.03 123.17 477.25 122.16 477.10 Z" />
<path fill="#434343" opacity="1.00" d=" M 436.17 476.69 C 439.24 476.54 445.37 476.24 448.44 476.09 L 448.36 476.99 C 444.48 476.95 440.65 476.90 436.79 476.71 L 436.17 476.69 Z" />
<path fill="#434343" opacity="1.00" d=" M 469.13 477.02 C 469.72 475.33 470.65 475.15 471.92 476.49 C 471.06 477.03 470.13 477.21 469.13 477.02 Z" />
<path fill="#434343" opacity="1.00" d=" M 671.01 523.99 C 671.03 507.86 670.58 491.71 671.54 475.60 C 672.08 491.81 672.10 508.03 671.87 524.26 L 671.01 523.99 Z" />
<path fill="#434343" opacity="1.00" d=" M 749.05 476.51 C 750.30 475.17 751.23 475.34 751.85 477.03 C 750.84 477.23 749.90 477.05 749.05 476.51 Z" />
<path fill="#434343" opacity="1.00" d=" M 829.13 476.68 C 832.23 476.65 838.41 476.60 841.51 476.57 L 840.90 476.58 C 837.14 476.63 833.48 476.74 829.75 476.69 L 829.13 476.68 Z" />
<path fill="#434343" opacity="1.00" d=" M 941.79 476.77 C 942.98 475.64 944.66 475.42 946.16 476.08 C 944.97 477.25 943.26 477.47 941.79 476.77 Z" />
<path fill="#434343" opacity="1.00" d=" M 0.00 481.97 C 16.09 481.92 32.18 481.96 48.25 482.73 C 32.17 482.86 16.09 483.05 0.00 483.03 L 0.00 481.97 Z" />
<path fill="#434343" opacity="1.00" d=" M 127.74 483.00 C 136.81 482.34 145.91 482.04 155.00 481.81 L 155.00 482.99 C 145.91 482.99 136.83 483.00 127.74 483.00 Z" />
<path fill="#434343" opacity="1.00" d=" M 301.20 482.12 C 319.15 481.70 337.14 481.60 355.05 483.19 C 336.98 482.75 318.87 483.70 300.85 482.14 L 301.20 482.12 Z" />
<path fill="#434343" opacity="1.00" d=" M 474.79 482.83 C 491.75 481.43 508.80 481.88 525.80 482.05 L 526.14 482.06 C 509.06 483.46 491.90 483.16 474.79 482.83 Z" />
<path fill="#434343" opacity="1.00" d=" M 870.80 482.79 C 882.27 481.91 893.84 481.59 905.33 482.64 L 904.63 482.64 C 893.34 482.72 882.06 482.63 870.80 482.79 Z" />
<path fill="#434343" opacity="1.00" d=" M 123.80 485.55 C 123.40 484.14 124.44 482.78 125.93 483.12 C 126.05 484.70 125.34 485.51 123.80 485.55 Z" />
<path fill="#434343" opacity="1.00" d=" M 356.09 483.27 C 357.65 482.97 358.48 484.46 358.38 485.83 C 356.79 485.75 356.03 484.89 356.09 483.27 Z" />
<path fill="#434343" opacity="1.00" d=" M 930.02 523.94 C 929.70 511.89 929.81 499.81 931.06 487.82 C 930.52 499.86 931.09 511.94 931.01 524.00 L 930.02 523.94 Z" />
<path fill="#434343" opacity="1.00" d=" M 469.56 512.38 C 468.74 504.52 469.17 496.57 469.72 488.71 C 469.84 496.59 469.83 504.49 469.56 512.38 Z" />
<path fill="#434343" opacity="1.00" d=" M 751.33 488.64 C 752.71 500.29 751.84 512.09 751.69 523.79 L 751.67 524.47 C 750.97 512.54 750.68 500.58 751.33 488.64 Z" />
<path fill="#434343" opacity="1.00" d=" M 919.02 494.53 C 918.78 493.16 918.94 491.78 919.14 490.43 C 920.95 490.90 921.14 494.56 919.02 494.53 Z" />
<path fill="#434343" opacity="1.00" d=" M 15.18 495.37 C 26.88 494.92 38.58 495.40 50.27 495.80 C 38.42 496.16 26.56 495.70 14.71 495.96 L 15.18 495.37 Z" />
<path fill="#434343" opacity="1.00" d=" M 318.80 495.77 C 330.87 494.79 342.98 494.97 355.08 495.17 C 343.02 496.27 330.89 495.90 318.80 495.77 Z" />
<path fill="#434343" opacity="1.00" d=" M 364.80 499.75 C 365.52 498.54 366.50 497.52 367.70 496.77 C 369.22 498.38 366.46 501.27 364.80 499.75 Z" />
<path fill="#434343" opacity="1.00" d=" M 444.77 500.01 C 443.63 498.96 444.17 497.38 445.49 496.82 C 446.37 498.12 446.13 499.19 444.77 500.01 Z" />
<path fill="#434343" opacity="1.00" d=" M 515.28 496.58 L 516.26 496.64 C 515.77 502.15 515.31 507.68 514.66 513.20 C 514.85 507.64 515.00 502.12 515.28 496.58 Z" />
<path fill="#434343" opacity="1.00" d=" M 304.38 500.35 C 303.90 498.59 304.55 497.92 306.32 498.33 C 305.95 499.27 305.30 499.94 304.38 500.35 Z" />
<path fill="#434343" opacity="1.00" d=" M 914.82 500.57 C 915.11 499.47 915.80 498.89 916.89 498.84 C 917.10 500.50 916.41 501.07 914.82 500.57 Z" />
<path fill="#434343" opacity="1.00" d=" M 434.30 503.03 C 435.61 502.87 436.35 504.27 436.18 505.42 C 434.91 506.22 433.28 504.07 434.30 503.03 Z" />
<path fill="#434343" opacity="1.00" d=" M 827.30 503.03 C 828.61 502.87 829.34 504.27 829.18 505.42 C 827.91 506.23 826.28 504.07 827.30 503.03 Z" />
<path fill="#434343" opacity="1.00" d=" M 79.83 518.49 C 88.33 517.05 96.97 517.07 105.55 517.61 L 104.83 517.67 C 96.51 518.28 88.16 518.17 79.83 518.49 Z" />
<path fill="#434343" opacity="1.00" d=" M 118.88 520.86 C 119.19 519.86 119.82 519.19 120.79 518.82 C 121.25 520.54 120.61 521.21 118.88 520.86 Z" />
<path fill="#434343" opacity="1.00" d=" M 461.21 518.83 C 462.17 519.19 462.81 519.88 463.12 520.87 C 461.37 521.22 460.74 520.54 461.21 518.83 Z" />
</g>
<g id="#d7d7d7ff">
<path fill="#d7d7d7" opacity="1.00" d=" M 164.81 476.01 L 165.93 475.97 C 165.91 481.36 165.68 486.79 165.88 492.19 C 165.45 486.79 165.12 481.40 164.81 476.01 Z" />
<path fill="#d7d7d7" opacity="1.00" d=" M 178.26 476.21 L 178.24 475.57 C 178.54 481.18 178.78 486.80 178.95 492.43 C 178.67 487.02 178.43 481.61 178.26 476.21 Z" />
<path fill="#d7d7d7" opacity="1.00" d=" M 448.44 476.09 L 448.50 475.40 C 448.50 480.66 448.38 485.94 448.17 491.22 C 448.27 486.46 448.14 481.73 448.36 476.99 L 448.44 476.09 Z" />
<path fill="#d7d7d7" opacity="1.00" d=" M 840.90 476.58 L 842.35 477.04 C 841.94 481.40 841.73 485.81 841.20 490.18 C 841.22 485.64 840.97 481.10 840.90 476.58 Z" />
<path fill="#d7d7d7" opacity="1.00" d=" M 914.10 477.69 C 915.71 479.25 917.08 481.05 918.20 483.01 C 917.09 481.41 915.90 479.88 914.67 478.39 L 914.10 477.69 Z" />
<path fill="#d7d7d7" opacity="1.00" d=" M 758.80 479.88 C 759.73 477.69 762.66 480.78 760.68 481.86 C 760.02 481.21 759.40 480.55 758.80 479.88 Z" />
<path fill="#d7d7d7" opacity="1.00" d=" M 853.38 483.06 C 851.74 482.05 853.41 479.10 855.10 480.17 C 854.63 481.20 854.06 482.16 853.38 483.06 Z" />
<path fill="#d7d7d7" opacity="1.00" d=" M 943.01 486.03 C 942.98 484.66 943.65 483.98 945.02 483.98 C 945.10 485.40 944.43 486.08 943.01 486.03 Z" />
<path fill="#d7d7d7" opacity="1.00" d=" M 458.81 486.69 L 458.76 487.32 C 458.55 490.11 458.44 492.86 458.41 495.70 L 458.39 496.39 C 458.45 493.11 458.58 489.92 458.81 486.69 Z" />
<path fill="#d7d7d7" opacity="1.00" d=" M 111.94 487.54 L 111.92 488.20 C 111.73 496.89 111.80 505.60 111.19 514.30 C 111.08 505.37 111.23 496.43 111.94 487.54 Z" />
<path fill="#d7d7d7" opacity="1.00" d=" M 123.30 513.22 C 123.52 505.03 123.48 496.82 123.79 488.64 C 123.85 496.82 123.98 505.04 123.30 513.22 Z" />
<path fill="#d7d7d7" opacity="1.00" d=" M 941.90 523.96 C 941.99 512.22 942.24 500.48 942.92 488.76 C 942.82 500.47 943.18 512.17 942.85 523.88 L 941.90 523.96 Z" />
<path fill="#d7d7d7" opacity="1.00" d=" M 182.53 495.33 C 196.65 494.91 210.77 494.95 224.90 494.97 L 224.82 495.91 C 210.95 496.30 197.06 496.19 183.20 495.37 L 182.53 495.33 Z" />
<path fill="#d7d7d7" opacity="1.00" d=" M 382.87 496.40 C 399.15 494.20 415.62 495.02 432.00 495.01 L 432.01 495.93 C 415.63 496.37 399.23 495.57 382.87 496.40 Z" />
<path fill="#d7d7d7" opacity="1.00" d=" M 458.39 496.39 L 458.41 495.70 C 458.49 500.70 458.76 505.67 458.96 510.69 L 458.61 510.22 C 458.05 505.61 458.31 500.99 458.39 496.39 Z" />
<path fill="#d7d7d7" opacity="1.00" d=" M 527.50 497.08 L 528.57 497.11 C 528.09 502.80 527.62 508.50 527.07 514.19 C 527.40 508.50 527.32 502.77 527.50 497.08 Z" />
<path fill="#d7d7d7" opacity="1.00" d=" M 863.98 503.98 C 878.38 503.95 892.79 504.19 907.20 504.28 C 892.80 505.25 878.36 505.08 863.95 505.00 L 863.98 503.98 Z" />
<path fill="#d7d7d7" opacity="1.00" d=" M 448.09 508.21 L 448.08 507.56 C 448.39 513.18 448.52 518.81 448.46 524.46 L 448.43 523.78 C 448.19 518.59 448.21 513.38 448.09 508.21 Z" />
<path fill="#d7d7d7" opacity="1.00" d=" M 840.82 508.29 L 840.79 507.63 C 841.23 513.22 841.47 518.83 841.52 524.46 L 841.48 523.78 C 841.16 518.62 841.05 513.43 840.82 508.29 Z" />
<path fill="#d7d7d7" opacity="1.00" d=" M 458.61 510.22 L 458.96 510.69 C 459.02 511.66 459.01 512.64 458.95 513.62 C 457.18 513.66 456.87 510.54 458.61 510.22 Z" />
<path fill="#d7d7d7" opacity="1.00" d=" M 512.40 517.16 C 512.12 515.57 512.76 514.99 514.32 515.44 C 514.22 516.60 513.58 517.18 512.40 517.16 Z" />
<path fill="#d7d7d7" opacity="1.00" d=" M 79.95 523.30 C 77.93 523.13 77.87 518.81 79.83 518.49 C 80.08 520.07 80.12 521.69 79.95 523.30 Z" />
<path fill="#d7d7d7" opacity="1.00" d=" M 593.32 518.97 C 594.27 519.81 595.18 520.72 596.04 521.68 C 594.48 523.21 591.77 520.52 593.32 518.97 Z" />
<path fill="#d7d7d7" opacity="1.00" d=" M 471.77 524.36 C 485.91 524.21 500.06 524.18 514.21 524.24 C 500.08 525.30 485.89 525.36 471.77 524.36 Z" />
<path fill="#d7d7d7" opacity="1.00" d=" M 604.80 524.22 C 623.46 524.18 642.13 523.68 660.80 524.34 L 661.47 524.36 C 642.60 525.31 623.65 525.53 604.80 524.22 Z" />
<path fill="#d7d7d7" opacity="1.00" d=" M 671.87 524.26 C 675.69 524.28 679.44 524.34 683.29 524.48 L 683.81 524.50 C 679.81 524.45 675.83 524.37 671.87 524.26 Z" />
</g>
<g id="#a1a1a1ff">
<path fill="#a1a1a1" opacity="1.00" d=" M 236.33 476.21 L 236.35 475.53 C 237.25 491.74 237.45 508.02 236.43 524.23 C 235.84 508.22 235.85 492.21 236.33 476.21 Z" />
<path fill="#a1a1a1" opacity="1.00" d=" M 300.85 482.14 C 298.90 481.42 298.98 477.15 300.94 476.91 C 301.15 478.63 301.23 480.37 301.20 482.12 L 300.85 482.14 Z" />
<path fill="#a1a1a1" opacity="1.00" d=" M 526.08 476.81 C 528.01 477.11 528.10 481.34 526.14 482.06 L 525.80 482.05 C 525.76 480.29 525.85 478.54 526.08 476.81 Z" />
<path fill="#a1a1a1" opacity="1.00" d=" M 114.30 481.23 C 113.69 479.48 114.28 478.77 116.09 479.09 C 115.77 480.02 115.17 480.74 114.30 481.23 Z" />
<path fill="#a1a1a1" opacity="1.00" d=" M 365.74 479.30 C 367.50 478.73 368.19 479.35 367.82 481.16 C 366.89 480.80 366.20 480.18 365.74 479.30 Z" />
<path fill="#a1a1a1" opacity="1.00" d=" M 705.15 483.32 L 706.06 483.18 C 706.06 496.95 706.14 510.73 705.36 524.49 L 705.34 523.83 C 704.93 510.33 704.73 496.82 705.15 483.32 Z" />
<path fill="#a1a1a1" opacity="1.00" d=" M 358.61 487.20 C 358.81 488.22 359.21 490.25 359.41 491.27 L 358.98 491.68 C 357.13 491.10 357.12 488.16 358.61 487.20 Z" />
<path fill="#a1a1a1" opacity="1.00" d=" M 851.87 487.55 L 851.84 488.20 C 851.53 496.52 851.63 504.86 851.69 513.21 C 851.14 504.66 851.19 496.08 851.87 487.55 Z" />
<path fill="#a1a1a1" opacity="1.00" d=" M 908.74 488.72 C 910.89 488.20 911.16 492.68 908.97 492.36 C 908.82 491.14 908.77 489.93 908.74 488.72 Z" />
<path fill="#a1a1a1" opacity="1.00" d=" M 178.99 493.28 C 180.55 492.98 181.13 493.60 180.71 495.16 C 179.51 495.11 178.94 494.48 178.99 493.28 Z" />
<path fill="#a1a1a1" opacity="1.00" d=" M 773.60 495.62 C 790.85 494.69 808.15 494.73 825.43 495.48 L 824.79 495.53 C 807.97 496.48 791.10 496.05 774.28 495.64 L 773.60 495.62 Z" />
<path fill="#a1a1a1" opacity="1.00" d=" M 380.83 502.14 C 378.93 501.23 379.03 497.17 380.85 496.58 C 381.08 498.41 381.18 500.26 381.16 502.12 L 380.83 502.14 Z" />
<path fill="#a1a1a1" opacity="1.00" d=" M 514.49 496.54 C 519.15 496.60 523.92 496.39 528.57 497.11 L 527.50 497.08 C 523.74 496.95 519.99 496.80 516.26 496.64 L 515.28 496.58 L 514.49 496.54 Z" />
<path fill="#a1a1a1" opacity="1.00" d=" M 2.76 499.93 C 2.93 498.24 4.29 496.96 5.97 496.84 C 5.88 498.54 4.47 499.91 2.76 499.93 Z" />
<path fill="#a1a1a1" opacity="1.00" d=" M 863.46 496.97 C 877.11 496.93 890.77 496.97 904.42 497.69 C 890.75 498.05 877.09 498.15 863.43 497.84 L 863.46 496.97 Z" />
<path fill="#a1a1a1" opacity="1.00" d=" M 65.44 500.72 C 65.53 499.30 66.28 498.47 67.67 498.24 C 67.61 499.66 66.87 500.48 65.44 500.72 Z" />
<path fill="#a1a1a1" opacity="1.00" d=" M 177.68 502.50 C 193.38 502.16 209.08 501.64 224.79 502.11 L 224.87 503.04 C 209.14 503.02 193.40 503.20 177.68 502.50 Z" />
<path fill="#a1a1a1" opacity="1.00" d=" M 10.69 523.79 C 11.06 518.77 11.46 513.74 12.00 508.75 C 11.70 513.73 11.74 518.69 11.52 523.69 L 10.69 523.79 Z" />
<path fill="#a1a1a1" opacity="1.00" d=" M 300.48 524.45 C 300.45 519.23 300.59 514.02 300.92 508.83 C 300.64 513.81 300.64 518.78 300.50 523.79 L 300.48 524.45 Z" />
<path fill="#a1a1a1" opacity="1.00" d=" M 867.50 516.43 C 885.06 515.80 902.66 515.62 920.23 516.54 C 902.88 517.18 885.51 517.31 868.18 516.46 L 867.50 516.43 Z" />
<path fill="#a1a1a1" opacity="1.00" d=" M 522.98 520.95 C 523.39 520.02 524.06 519.38 525.01 519.02 C 525.40 520.79 524.73 521.43 522.98 520.95 Z" />
</g>
<g id="#7e7e7eff">
<path fill="#7e7e7e" opacity="1.00" d=" M 591.83 515.20 C 590.82 501.98 590.47 488.66 591.55 475.44 C 592.04 488.68 591.71 501.94 591.83 515.20 Z" />
<path fill="#7e7e7e" opacity="1.00" d=" M 683.30 476.76 C 683.31 476.47 683.33 475.88 683.34 475.59 C 684.21 491.86 684.59 508.22 683.29 524.48 C 682.90 508.57 682.88 492.66 683.30 476.76 Z" />
<path fill="#7e7e7e" opacity="1.00" d=" M 693.48 475.55 L 693.51 476.21 C 694.22 492.08 694.11 507.98 693.71 523.87 L 693.69 524.53 C 692.69 508.22 692.66 491.86 693.48 475.55 Z" />
<path fill="#7e7e7e" opacity="1.00" d=" M 436.33 492.34 C 436.36 487.11 436.21 481.90 436.79 476.71 C 436.65 481.90 437.00 487.16 436.33 492.34 Z" />
<path fill="#7e7e7e" opacity="1.00" d=" M 829.31 492.55 C 829.32 487.24 829.17 481.95 829.75 476.69 C 829.62 481.96 829.65 487.27 829.31 492.55 Z" />
<path fill="#7e7e7e" opacity="1.00" d=" M 932.58 481.09 C 932.82 479.71 933.66 478.97 935.08 478.85 C 934.85 480.29 934.01 481.03 932.58 481.09 Z" />
<path fill="#7e7e7e" opacity="1.00" d=" M 55.29 482.90 C 56.71 482.85 57.38 483.51 57.31 484.91 C 55.92 484.95 55.25 484.28 55.29 482.90 Z" />
<path fill="#7e7e7e" opacity="1.00" d=" M 863.41 498.51 C 863.30 495.19 863.49 492.05 863.69 488.79 C 863.55 491.50 863.48 494.23 863.46 496.97 L 863.43 497.84 L 863.41 498.51 Z" />
<path fill="#7e7e7e" opacity="1.00" d=" M 827.51 495.30 C 827.11 493.75 827.69 493.13 829.26 493.43 C 829.29 494.64 828.71 495.27 827.51 495.30 Z" />
<path fill="#7e7e7e" opacity="1.00" d=" M 10.86 495.54 C 12.14 494.63 13.86 494.38 15.18 495.37 L 14.71 495.96 C 13.38 496.21 12.10 496.07 10.86 495.54 Z" />
<path fill="#7e7e7e" opacity="1.00" d=" M 905.76 496.38 C 905.96 495.17 906.66 494.70 907.88 494.96 C 907.91 496.52 907.20 496.99 905.76 496.38 Z" />
<path fill="#7e7e7e" opacity="1.00" d=" M 772.58 501.97 L 773.51 501.96 C 790.81 501.90 808.14 501.61 825.41 502.86 C 807.80 502.99 790.13 503.73 772.58 501.97 Z" />
<path fill="#7e7e7e" opacity="1.00" d=" M 15.84 502.84 C 29.27 501.53 42.78 502.23 56.24 502.63 C 42.78 503.27 29.30 502.69 15.84 502.84 Z" />
<path fill="#7e7e7e" opacity="1.00" d=" M 316.68 502.74 C 330.20 501.55 343.78 502.17 357.32 502.66 C 343.78 503.06 330.22 503.18 316.68 502.74 Z" />
<path fill="#7e7e7e" opacity="1.00" d=" M 381.16 502.12 C 398.24 501.79 415.36 501.61 432.41 502.86 C 415.23 502.74 397.94 503.98 380.83 502.14 L 381.16 502.12 Z" />
<path fill="#7e7e7e" opacity="1.00" d=" M 862.83 503.98 L 863.98 503.98 L 863.95 505.00 C 863.85 507.85 863.76 510.70 863.67 513.57 C 863.39 510.40 863.01 507.13 862.83 503.98 Z" />
<path fill="#7e7e7e" opacity="1.00" d=" M 436.25 507.51 C 436.44 512.96 436.59 518.42 436.70 523.89 L 436.71 524.50 C 436.47 518.83 436.32 513.17 436.25 507.51 Z" />
<path fill="#7e7e7e" opacity="1.00" d=" M 829.25 507.51 C 829.44 512.96 829.58 518.42 829.70 523.89 L 829.71 524.50 C 829.47 518.83 829.32 513.17 829.25 507.51 Z" />
<path fill="#7e7e7e" opacity="1.00" d=" M 863.75 514.46 C 865.29 514.13 865.89 514.74 865.53 516.29 C 864.32 516.29 863.73 515.68 863.75 514.46 Z" />
<path fill="#7e7e7e" opacity="1.00" d=" M 473.56 517.58 C 486.15 516.91 498.77 516.88 511.37 517.23 L 510.74 517.27 C 498.59 518.04 486.39 518.35 474.24 517.63 L 473.56 517.58 Z" />
<path fill="#7e7e7e" opacity="1.00" d=" M 607.56 517.55 C 625.36 516.70 643.18 517.00 661.00 517.00 L 661.05 518.00 C 643.45 517.96 625.83 518.45 608.24 517.59 L 607.56 517.55 Z" />
</g>
</svg>
